<svg fill="none" height="32" viewBox="0 0 32 32" width="32" xmlns="http://www.w3.org/2000/svg">
    <path clip-rule="evenodd" d="M7 11.9997C7.00014 7.0293 11.0295 3 16 3C20.9706 3 25 7.02944 25 12L24.9997 12.0656V13C24.9997 15.8308 26.0678 18.4099 27.8245 20.3598C28.0465 20.6063 28.1318 20.9467 28.0524 21.2687C27.9729 21.5908 27.739 21.8524 27.4278 21.9673C25.3692 22.7273 23.214 23.2878 20.9861 23.6256C20.9953 23.7493 21 23.8742 21 24C21 26.7614 18.7614 29 16 29C13.2386 29 11 26.7614 11 24C11 23.8742 11.0047 23.7493 11.0138 23.6257C8.78577 23.2879 6.63048 22.7273 4.57165 21.9673C4.2605 21.8524 4.02655 21.5908 3.94709 21.2687C3.86763 20.9467 3.953 20.6063 4.175 20.3598C5.93171 18.4099 6.99974 15.8308 6.99974 13L7 11.9997ZM13.0029 23.8657C13.001 23.9102 13 23.955 13 24C13 25.6569 14.3431 27 16 27C17.6569 27 19 25.6569 19 24C19 23.9549 18.999 23.9102 18.9971 23.8656C18.0096 23.9546 17.0099 24 15.9997 24C14.9898 24 13.9902 23.9546 13.0029 23.8657Z"
        fill="#006894"
        fill-rule="evenodd" />
</svg>
