<svg fill="none" height="32" viewBox="0 0 32 32" width="32" xmlns="http://www.w3.org/2000/svg">
    <path
        d="M15.2929 5.12126C15.6834 4.73074 16.3166 4.73074 16.7071 5.12126L28.2929 16.707C28.6834 17.0976 29.3166 17.0976 29.7071 16.707C30.0976 16.3165 30.0976 15.6834 29.7071 15.2928L18.1213 3.70705C16.9497 2.53547 15.0503 2.53548 13.8787 3.70705L2.29289 15.2928C1.90237 15.6834 1.90237 16.3165 2.29289 16.707C2.68342 17.0976 3.31658 17.0976 3.70711 16.707L15.2929 5.12126Z"
        fill="#006894" />
    <path
        d="M16 7.24258L26.8787 18.1213C26.9183 18.1609 26.9588 18.1992 27 18.2361V26.4999C27 27.8806 25.8807 28.9999 24.5 28.9999H20C19.4477 28.9999 19 28.5522 19 27.9999V21.9999C19 21.4477 18.5523 20.9999 18 20.9999H14C13.4477 20.9999 13 21.4477 13 21.9999V27.9999C13 28.5522 12.5523 28.9999 12 28.9999H7.5C6.11929 28.9999 5 27.8807 5 26.4999V18.2361C5.04124 18.1992 5.08169 18.1609 5.12132 18.1213L16 7.24258Z"
        fill="#006894" />
</svg>
