<svg fill="none" height="32" viewBox="0 0 32 32" width="32" xmlns="http://www.w3.org/2000/svg">
    <path clip-rule="evenodd" d="M15.7707 3C14.5486 3 13.5056 3.88353 13.3047 5.089L13.1827 5.82136C13.1202 6.19593 12.8494 6.49877 12.4938 6.63193C12.2775 6.71293 12.0647 6.8012 11.8558 6.89646C11.5101 7.05408 11.1043 7.0315 10.7951 6.81068L10.1907 6.37891C9.19619 5.66858 7.83395 5.78132 6.96979 6.64547L6.6455 6.96976C5.78135 7.83392 5.6686 9.19616 6.37893 10.1906L6.8107 10.7951C7.03152 11.1043 7.0541 11.5101 6.89648 11.8558C6.80122 12.0647 6.71294 12.2775 6.63193 12.4938C6.49877 12.8494 6.19594 13.1202 5.82136 13.1826L5.089 13.3047C3.88353 13.5056 3 14.5486 3 15.7707V16.2293C3 17.4514 3.88353 18.4944 5.089 18.6953L5.82136 18.8173C6.19593 18.8798 6.49877 19.1506 6.63193 19.5062C6.71293 19.7225 6.8012 19.9353 6.89646 20.1442C7.05407 20.4899 7.0315 20.8957 6.81068 21.2049L6.37887 21.8094C5.66855 22.8038 5.78129 24.1661 6.64544 25.0302L6.96973 25.3545C7.83389 26.2187 9.19613 26.3314 10.1906 25.6211L10.7951 25.1893C11.1043 24.9685 11.5101 24.9459 11.8558 25.1035C12.0647 25.1988 12.2775 25.2871 12.4938 25.3681C12.8494 25.5012 13.1202 25.8041 13.1826 26.1786L13.3047 26.911C13.5056 28.1165 14.5486 29 15.7707 29H16.2293C17.4514 29 18.4944 28.1165 18.6953 26.911L18.8173 26.1786C18.8798 25.8041 19.1506 25.5012 19.5062 25.3681C19.7225 25.2871 19.9353 25.1988 20.1442 25.1035C20.4899 24.9459 20.8957 24.9685 21.2049 25.1893L21.8093 25.6211C22.8038 26.3314 24.1661 26.2187 25.0302 25.3545L25.3545 25.0302C26.2187 24.1661 26.3314 22.8038 25.6211 21.8094L25.1893 21.2049C24.9685 20.8957 24.9459 20.4899 25.1035 20.1442C25.1988 19.9353 25.2871 19.7225 25.3681 19.5062C25.5012 19.1506 25.8041 18.8798 26.1786 18.8174L26.911 18.6953C28.1165 18.4944 29 17.4514 29 16.2293V15.7707C29 14.5486 28.1165 13.5056 26.911 13.3047L26.1786 13.1827C25.8041 13.1202 25.5012 12.8494 25.3681 12.4938C25.2871 12.2775 25.1988 12.0647 25.1035 11.8558C24.9459 11.5101 24.9685 11.1043 25.1893 10.7951L25.6211 10.1906C26.3315 9.19616 26.2187 7.83392 25.3546 6.96976L25.0303 6.64547C24.1661 5.78132 22.8039 5.66857 21.8094 6.3789L21.2049 6.8107C20.8957 7.03152 20.4899 7.05409 20.1442 6.89648C19.9353 6.80122 19.7225 6.71294 19.5062 6.63193C19.1506 6.49877 18.8798 6.19594 18.8174 5.82136L18.6953 5.089C18.4944 3.88353 17.4514 3 16.2293 3H15.7707ZM16 21C18.7614 21 21 18.7614 21 16C21 13.2386 18.7614 11 16 11C13.2386 11 11 13.2386 11 16C11 18.7614 13.2386 21 16 21Z"
        fill="#006894"
        fill-rule="evenodd" />
</svg>
