<svg fill="none" height="413" viewBox="0 0 551 413" width="551" xmlns="http://www.w3.org/2000/svg">
    <g clip-path="url(#clip0_6_318)">
        <path
            d="M550.6 411.255C550.6 411.915 550.07 412.445 549.41 412.445H1.19C0.53 412.445 0 411.915 0 411.255C0 410.595 0.53 410.065 1.19 410.065H549.41C550.07 410.065 550.6 410.595 550.6 411.255Z"
            fill="#2E2E43" />
        <path
            d="M436.659 84.7844H114.076C109.617 84.7844 105.99 81.157 105.99 76.6985V51.8458C105.99 47.3872 109.617 43.7599 114.076 43.7599H436.659C441.117 43.7599 444.745 47.3872 444.745 51.8458V76.6985C444.745 81.157 441.117 84.7844 436.659 84.7844Z"
            fill="white" stroke="#BAB7C9" stroke-linecap="round" stroke-linejoin="round"
            stroke-width="2" />
        <path
            d="M436.659 237.99H114.076C109.617 237.99 105.99 234.363 105.99 229.904V205.051C105.99 200.593 109.617 196.966 114.076 196.966H436.659C441.117 196.966 444.745 200.593 444.745 205.051V229.904C444.745 234.363 441.117 237.99 436.659 237.99Z"
            fill="white" stroke="#BAB7C9" stroke-linecap="round" stroke-linejoin="round"
            stroke-width="2" />
        <path
            d="M207.659 347.99H113.076C108.617 347.99 104.99 344.363 104.99 339.904V315.052C104.99 310.593 108.617 306.966 113.076 306.966H207.659C212.117 306.966 215.745 310.593 215.745 315.052V339.904C215.745 344.363 212.117 347.99 207.659 347.99Z"
            fill="#006894" />
        <path d="M106.698 1H177.448" stroke="#BAB7C9" stroke-linecap="round" stroke-linejoin="round"
            stroke-width="2" />
        <path d="M106.698 154.206H238.123" stroke="#BAB7C9" stroke-linecap="round"
            stroke-linejoin="round" stroke-width="2" />
        <path d="M397.631 367.241L386.506 374.353L396.594 390.134L407.72 383.022L397.631 367.241Z"
            fill="#D08B95" />
        <path d="M362.348 155.102L348.294 159.901L348.073 139.608L360.863 139.465L362.348 155.102Z"
            fill="#D08B95" />
        <path
            d="M349.714 145.211C357.476 145.211 363.768 138.919 363.768 131.157C363.768 123.396 357.476 117.103 349.714 117.103C341.952 117.103 335.66 123.396 335.66 131.157C335.66 138.919 341.952 145.211 349.714 145.211Z"
            fill="#D08B95" />
        <path
            d="M353.56 129.724C351.212 129.679 349.636 127.325 348.696 125.158C347.755 123.005 346.789 120.515 344.603 119.639C342.813 118.926 339.726 123.907 338.299 122.61C336.814 121.254 338.17 114.172 339.72 112.894C341.27 111.617 343.397 111.344 345.395 111.221C350.291 110.942 355.214 111.279 360.026 112.233C362.996 112.816 366.07 113.718 368.23 115.839C370.973 118.53 371.713 122.629 371.946 126.462C372.193 130.386 372.005 134.497 370.137 137.961C368.262 141.417 364.3 143.992 360.454 143.162C360.045 141.08 360.408 138.947 360.538 136.819C360.668 134.705 360.48 132.422 359.17 130.749C357.86 129.076 355.097 128.44 353.612 129.951"
            fill="#2F2E43" />
        <path
            d="M370.902 134.4C372.296 133.356 373.963 132.474 375.695 132.669C377.569 132.87 379.165 134.4 379.664 136.216C380.163 138.032 379.645 140.043 378.51 141.547C377.375 143.052 375.669 144.051 373.853 144.563C372.802 144.861 371.654 144.984 370.643 144.563C369.157 143.94 368.34 142.066 368.905 140.555"
            fill="#2F2E43" />
        <path
            d="M318.603 267.171C317.721 271.795 319.479 275.998 322.54 276.549C325.595 277.1 328.792 273.793 329.68 269.169C330.063 267.327 329.979 265.42 329.434 263.611L340.245 191.129L325.679 188.56L320.886 262.08C319.712 263.585 318.928 265.329 318.603 267.191L318.603 267.171Z"
            fill="#D08B95" />
        <path
            d="M348.034 150.588L338.112 150.698C331.107 151.833 329.246 155.601 327.735 162.528C325.42 173.093 322.462 187.173 323.085 187.367C324.077 187.691 341.05 195.448 349.643 193.528L348.041 150.588L348.034 150.588Z"
            fill="#006894" />
        <path d="M360.221 380.961L347.018 381.108L347.227 399.837L360.43 399.69L360.221 380.961Z"
            fill="#D08B95" />
        <path
            d="M334.46 411.324C333.066 411.344 331.84 411.324 330.906 411.246C327.391 410.967 324.025 408.412 322.319 406.92C321.554 406.252 321.301 405.163 321.684 404.229C321.956 403.561 322.514 403.049 323.214 402.835L332.456 400.085L347.353 389.792L347.522 390.091C347.587 390.201 349.091 392.84 349.604 394.63C349.798 395.311 349.759 395.876 349.474 396.317C349.279 396.621 349.007 396.803 348.786 396.913C349.059 397.192 349.915 397.763 352.548 398.152C356.374 398.723 357.146 394.741 357.172 394.572L357.198 394.436L357.308 394.358C359.118 393.158 360.227 392.62 360.616 392.73C360.862 392.795 361.258 392.918 362.464 403.71C362.575 404.047 363.366 406.525 362.873 408.911C362.341 411.506 351.024 410.734 348.767 410.559C348.702 410.565 340.245 411.266 334.447 411.324H334.467L334.46 411.324Z"
            fill="#2F2E43" />
        <path
            d="M383.212 408.211C381.662 408.231 380.235 408.055 379.217 407.887C378.218 407.718 377.427 406.933 377.258 405.935C377.128 405.215 377.342 404.495 377.816 403.95L384.197 396.725L391.383 380.109L391.688 380.272C391.798 380.33 394.47 381.776 395.858 383.021C396.384 383.495 396.65 383.994 396.65 384.526C396.65 384.889 396.513 385.188 396.377 385.389C396.76 385.479 397.785 385.505 400.223 384.448C403.771 382.905 402.318 379.117 402.253 378.968L402.201 378.838L402.26 378.722C403.161 376.75 403.823 375.699 404.205 375.583C404.452 375.518 404.847 375.394 411.586 383.916C411.858 384.143 413.843 385.823 414.686 388.106C415.6 390.59 405.606 395.921 403.583 396.965C403.524 397.017 393.076 404.78 388.783 407.005C387.077 407.887 385.047 408.179 383.199 408.192L383.218 408.211L383.212 408.211Z"
            fill="#2F2E43" />
        <path
            d="M368.178 224.185L331.211 224.594L328.241 259.019L344.331 385.927L363.204 385.713L354.844 312.407L386.195 378.332L402.837 366.399L378.244 304.8C378.244 304.8 386.189 250.815 379.327 237.468C372.472 224.12 368.185 224.166 368.185 224.166V224.185L368.178 224.185Z"
            fill="#2F2E43" />
        <path d="M386.584 226.079L327.871 226.734L344.643 150.633L370.228 150.341L386.584 226.079Z"
            fill="#006894" />
        <path
            d="M392.317 266.354C393.303 270.965 391.636 275.2 388.594 275.816C385.546 276.439 382.278 273.203 381.298 268.591C380.877 266.756 380.916 264.849 381.415 263.027L368.989 190.798L383.49 187.905L389.917 261.308C391.124 262.787 391.947 264.519 392.317 266.367V266.354Z"
            fill="#D08B95" />
        <path
            d="M360.312 150.452L370.234 150.341C377.258 151.327 379.204 155.05 380.877 161.944C383.426 172.457 386.688 186.459 386.078 186.673C385.086 187.01 368.302 195.143 359.669 193.418L360.324 150.452L360.312 150.452Z"
            fill="#006894" />
    </g>
    <defs>
        <clipPath id="clip0_6_318">
            <rect fill="white" height="412.445" width="550.6" />
        </clipPath>
    </defs>
</svg>
