<svg fill="none" height="412" viewBox="0 0 550 412" width="550" xmlns="http://www.w3.org/2000/svg">
    <g clip-path="url(#clip0_306_2368)">
        <path
            d="M550 410.81C550 411.469 549.471 411.999 548.811 411.999H1.1887C0.529423 411.999 0 411.469 0 410.81C0 410.151 0.529423 409.621 1.1887 409.621H548.811C549.471 409.621 550 410.151 550 410.81Z"
            fill="#2E2E43" />
        <path
            d="M436.184 84.6911H113.952C109.498 84.6911 105.875 81.0677 105.875 76.614V51.7881C105.875 47.3344 109.498 43.7109 113.952 43.7109H436.184C440.637 43.7109 444.261 47.3344 444.261 51.7881V76.614C444.261 81.0677 440.637 84.6911 436.184 84.6911Z"
            fill="#393939" stroke="#BAB7C9" stroke-linecap="round" stroke-linejoin="round"
            stroke-width="2" />
        <path
            d="M436.184 237.734H113.952C109.498 237.734 105.875 234.111 105.875 229.657V204.831C105.875 200.377 109.498 196.754 113.952 196.754H436.184C440.637 196.754 444.261 200.377 444.261 204.831V229.657C444.261 234.111 440.637 237.734 436.184 237.734Z"
            fill="#393939" stroke="#BAB7C9" stroke-linecap="round" stroke-linejoin="round"
            stroke-width="2" />
        <path
            d="M207.432 347.613H112.952C108.498 347.613 104.875 343.99 104.875 339.536V314.71C104.875 310.256 108.498 306.633 112.952 306.633H207.432C211.886 306.633 215.509 310.256 215.509 314.71V339.536C215.509 343.99 211.886 347.613 207.432 347.613Z"
            fill="#006894" />
        <path d="M106.582 1H177.255" stroke="#BAB7C9" stroke-linecap="round" stroke-linejoin="round"
            stroke-width="2" />
        <path d="M106.582 154.039H237.864" stroke="#BAB7C9" stroke-linecap="round" stroke-linejoin="round"
            stroke-width="2" />
        <path d="M397.197 366.845L386.084 373.949L396.161 389.713L407.275 382.609L397.197 366.845Z"
            fill="#D08B95" />
        <path d="M361.952 154.936L347.914 159.73L347.693 139.459L360.469 139.316L361.952 154.936Z"
            fill="#D08B95" />
        <path
            d="M349.334 145.054C357.087 145.054 363.372 138.769 363.372 131.015C363.372 123.262 357.087 116.977 349.334 116.977C341.58 116.977 335.295 123.262 335.295 131.015C335.295 138.769 341.58 145.054 349.334 145.054Z"
            fill="#D08B95" />
        <path
            d="M353.175 129.586C350.83 129.54 349.256 127.188 348.316 125.025C347.377 122.874 346.412 120.386 344.229 119.511C342.441 118.799 339.357 123.774 337.932 122.479C336.448 121.125 337.802 114.05 339.35 112.774C340.899 111.498 343.024 111.225 345.019 111.102C349.91 110.824 354.827 111.161 359.634 112.113C362.601 112.696 365.672 113.597 367.829 115.715C370.57 118.404 371.308 122.498 371.542 126.327C371.788 130.246 371.6 134.354 369.734 137.813C367.862 141.266 363.904 143.838 360.062 143.009C359.654 140.929 360.016 138.798 360.146 136.673C360.276 134.561 360.088 132.281 358.779 130.609C357.471 128.938 354.711 128.303 353.227 129.812"
            fill="#2F2E43" />
        <path
            d="M370.499 134.257C371.892 133.214 373.557 132.333 375.286 132.527C377.159 132.728 378.752 134.257 379.251 136.071C379.75 137.885 379.232 139.893 378.098 141.396C376.964 142.899 375.26 143.897 373.447 144.409C372.397 144.707 371.25 144.83 370.24 144.409C368.756 143.787 367.94 141.914 368.503 140.405"
            fill="#2F2E43" />
        <path
            d="M318.257 266.881C317.376 271.5 319.131 275.699 322.189 276.249C325.241 276.8 328.434 273.496 329.322 268.877C329.704 267.037 329.62 265.132 329.076 263.325L339.875 190.921L325.325 188.355L320.537 261.796C319.365 263.299 318.581 265.041 318.257 266.901L318.257 266.881Z"
            fill="#D08B95" />
        <path
            d="M347.655 150.426L337.743 150.536C330.746 151.67 328.887 155.434 327.378 162.353C325.065 172.906 322.111 186.971 322.733 187.165C323.724 187.489 340.678 195.238 349.262 193.32L347.662 150.426L347.655 150.426Z"
            fill="#006894" />
        <path d="M359.828 380.548L346.639 380.695L346.848 399.404L360.037 399.257L359.828 380.548Z"
            fill="#D08B95" />
        <path
            d="M334.095 410.88C332.702 410.899 331.478 410.88 330.545 410.802C327.033 410.523 323.671 407.971 321.967 406.481C321.203 405.814 320.95 404.725 321.332 403.792C321.604 403.125 322.162 402.613 322.861 402.399L332.093 399.652L346.974 389.371L347.142 389.669C347.207 389.779 348.71 392.416 349.222 394.204C349.416 394.884 349.377 395.448 349.092 395.888C348.898 396.193 348.626 396.374 348.406 396.484C348.678 396.763 349.533 397.333 352.163 397.722C355.985 398.292 356.756 394.314 356.782 394.146L356.808 394.01L356.918 393.932C358.726 392.733 359.834 392.196 360.222 392.306C360.469 392.371 360.864 392.494 362.069 403.274C362.179 403.611 362.969 406.086 362.477 408.47C361.946 411.061 350.641 410.29 348.386 410.115C348.321 410.122 339.874 410.821 334.082 410.88H334.101L334.095 410.88Z"
            fill="#2F2E43" />
        <path
            d="M382.795 407.77C381.247 407.789 379.821 407.615 378.804 407.446C377.807 407.278 377.016 406.494 376.848 405.496C376.718 404.777 376.932 404.058 377.405 403.514L383.78 396.297L390.958 379.699L391.262 379.861C391.372 379.919 394.041 381.364 395.428 382.608C395.953 383.08 396.218 383.579 396.218 384.111C396.218 384.473 396.082 384.771 395.946 384.972C396.328 385.063 397.352 385.089 399.788 384.033C403.332 382.491 401.88 378.707 401.816 378.558L401.764 378.429L401.822 378.312C402.723 376.343 403.383 375.293 403.766 375.177C404.012 375.112 404.407 374.989 411.138 383.501C411.41 383.728 413.393 385.406 414.235 387.687C415.148 390.168 405.165 395.493 403.144 396.536C403.085 396.588 392.649 404.343 388.36 406.565C386.656 407.446 384.628 407.738 382.782 407.751L382.801 407.77L382.795 407.77Z"
            fill="#2F2E43" />
        <path
            d="M367.777 223.945L330.85 224.353L327.883 258.741L343.956 385.512L362.808 385.299L354.457 312.072L385.774 377.926L402.398 366.006L377.831 304.473C377.831 304.473 385.768 250.546 378.913 237.213C372.066 223.88 367.783 223.926 367.783 223.926V223.945L367.777 223.945Z"
            fill="#2F2E43" />
        <path d="M386.163 225.836L327.514 226.49L344.267 150.471L369.824 150.18L386.163 225.836Z"
            fill="#006894" />
        <path
            d="M391.889 266.067C392.874 270.673 391.209 274.904 388.17 275.519C385.125 276.141 381.86 272.908 380.882 268.302C380.461 266.469 380.5 264.564 380.999 262.743L368.586 190.593L383.072 187.703L389.492 261.027C390.697 262.504 391.52 264.234 391.889 266.08V266.067Z"
            fill="#D08B95" />
        <path
            d="M359.919 150.29L369.831 150.18C376.847 151.164 378.79 154.883 380.462 161.77C383.008 172.271 386.266 186.258 385.658 186.472C384.666 186.809 367.9 194.933 359.277 193.21L359.932 150.29L359.919 150.29Z"
            fill="#006894" />
    </g>
    <defs>
        <clipPath id="clip0_306_2368">
            <rect fill="white" height="412" width="550" />
        </clipPath>
    </defs>
</svg>
