<svg fill="none" height="280" viewBox="0 0 280 280" width="280" xmlns="http://www.w3.org/2000/svg">
    <path
        d="M203.718 78.8389C183.243 77.7889 165.043 86.5389 153.143 100.976C153.143 100.976 139.756 118.301 139.756 118.214C139.756 118.214 122.868 140.351 122.956 140.351L108.431 159.426L107.293 160.914C98.9805 172.026 84.2805 178.239 68.793 173.689C62.9941 171.941 57.7616 168.688 53.6273 164.262C49.4931 159.836 46.6046 154.393 45.2555 148.489C44.0492 143.376 44.0139 138.056 45.1522 132.928C46.2905 127.799 48.5729 122.994 51.829 118.871C55.0851 114.748 59.2307 111.415 63.9561 109.119C68.6815 106.823 73.8645 105.625 79.118 105.614C89.7055 105.614 97.5805 110.076 103.006 114.801C108.781 119.876 117.618 119.089 122.343 112.964C126.456 107.626 125.931 99.9264 121.031 95.3764C93.3805 70.0014 41.0555 75.7764 24.343 111.039C2.64301 156.801 35.718 201.951 79.118 201.951C98.193 201.951 115.256 193.464 126.543 179.814L130.306 174.914C130.306 174.914 139.843 162.401 139.843 162.489C139.843 162.489 156.731 140.351 156.643 140.351L171.431 121.014L172.481 119.701C180.093 109.376 193.218 103.514 207.656 106.314C220.431 108.851 231.018 118.826 234.168 131.514C239.943 154.526 222.618 175.264 200.481 175.264C190.068 175.264 182.193 170.801 176.768 165.989C175.398 164.788 173.796 163.88 172.061 163.324C170.326 162.767 168.495 162.573 166.681 162.754C164.868 162.934 163.111 163.486 161.52 164.373C159.929 165.261 158.537 166.466 157.431 167.914C153.143 173.514 153.931 181.301 159.181 186.026C167.318 193.289 181.231 202.126 200.481 202.126C237.231 202.126 266.543 169.839 261.556 132.126C257.706 103.076 232.856 80.3264 203.718 78.8389Z"
        fill="#006894" />
</svg>
