<svg fill="none" height="82" viewBox="0 0 82 82" width="82" xmlns="http://www.w3.org/2000/svg">
    <path clip-rule="evenodd" d="M68.8557 70.5712C76.7173 63.163 81.625 52.6546 81.625 41C81.625 18.5634 63.4366 0.375 41 0.375C18.5634 0.375 0.375 18.5634 0.375 41C0.375 52.6546 5.28272 63.163 13.1443 70.5712C20.4172 77.4247 30.2181 81.625 41 81.625C51.7819 81.625 61.5828 77.4247 68.8557 70.5712ZM16.6047 65.2179C22.3317 58.0742 31.1317 53.5 41 53.5C50.8683 53.5 59.6683 58.0742 65.3953 65.2179C59.1678 71.4908 50.5375 75.375 41 75.375C31.4625 75.375 22.8322 71.4908 16.6047 65.2179ZM56.625 28.5C56.625 37.1295 49.6295 44.125 41 44.125C32.3706 44.125 25.375 37.1295 25.375 28.5C25.375 19.8706 32.3706 12.875 41 12.875C49.6295 12.875 56.625 19.8706 56.625 28.5Z"
        fill="#8E8E8E"
        fill-rule="evenodd" />
</svg>
