<svg fill="none" height="22" viewBox="0 0 19 22" width="19" xmlns="http://www.w3.org/2000/svg">
    <path
        d="M12.2404 8L11.8942 17M7.10577 17L6.75962 8M16.7276 4.79057C17.0696 4.84221 17.4104 4.89747 17.75 4.95629M16.7276 4.79057L15.6598 18.6726C15.5696 19.8448 14.5921 20.75 13.4164 20.75H5.58357C4.40786 20.75 3.43037 19.8448 3.3402 18.6726L2.27235 4.79057M16.7276 4.79057C15.5812 4.61744 14.4215 4.48485 13.25 4.39432M1.25 4.95629C1.58957 4.89747 1.93037 4.84221 2.27235 4.79057M2.27235 4.79057C3.41878 4.61744 4.57849 4.48485 5.75 4.39432M13.25 4.39432V3.47819C13.25 2.29882 12.3393 1.31423 11.1606 1.27652C10.6092 1.25889 10.0556 1.25 9.5 1.25C8.94435 1.25 8.39078 1.25889 7.83942 1.27652C6.66065 1.31423 5.75 2.29882 5.75 3.47819V4.39432M13.25 4.39432C12.0126 4.2987 10.762 4.25 9.5 4.25C8.23803 4.25 6.98744 4.2987 5.75 4.39432"
        stroke="#FB3748" stroke-linecap="round" stroke-linejoin="round" stroke-width="1.5" />
</svg>
