<svg fill="none" height="32" viewBox="0 0 32 32" width="32" xmlns="http://www.w3.org/2000/svg">
    <path
        d="M13.7911 5.2534C13.9116 4.53012 14.5374 4 15.2707 4H16.7293C17.4626 4 18.0884 4.53012 18.2089 5.2534L18.4075 6.44515C18.5018 7.01084 18.919 7.46451 19.4487 7.68442C19.9786 7.90443 20.5871 7.87505 21.0539 7.54156L22.0374 6.83911C22.634 6.41292 23.4514 6.48056 23.9699 6.99905L25.0013 8.03045C25.5198 8.54894 25.5874 9.36629 25.1612 9.96297L24.4585 10.9468C24.1251 11.4135 24.0957 12.0218 24.3157 12.5515C24.5355 13.081 24.9891 13.4982 25.5546 13.5924L26.7466 13.7911C27.4699 13.9116 28 14.5374 28 15.2707V16.7293C28 17.4626 27.4699 18.0884 26.7466 18.2089L25.5548 18.4075C24.9891 18.5018 24.5355 18.919 24.3156 19.4487C24.0956 19.9786 24.125 20.587 24.4584 21.0539L25.1608 22.0371C25.587 22.6338 25.5193 23.4511 25.0008 23.9696L23.9694 25.001C23.4509 25.5195 22.6336 25.5872 22.0369 25.161L21.0534 24.4585C20.5867 24.1251 19.9783 24.0957 19.4485 24.3156C18.919 24.5355 18.5018 24.9891 18.4076 25.5547L18.2089 26.7466C18.0884 27.4699 17.4626 28 16.7293 28H15.2707C14.5374 28 13.9116 27.4699 13.7911 26.7466L13.5925 25.5548C13.4982 24.9891 13.081 24.5355 12.5513 24.3156C12.0214 24.0956 11.413 24.125 10.9461 24.4584L9.96264 25.1609C9.36596 25.5871 8.54861 25.5195 8.03012 25.001L6.99872 23.9696C6.48023 23.4511 6.41258 22.6338 6.83878 22.0371L7.54149 21.0533C7.87488 20.5865 7.90428 19.9783 7.68434 19.4485C7.46449 18.919 7.01093 18.5018 6.44536 18.4076L5.2534 18.2089C4.53012 18.0884 4 17.4626 4 16.7293V15.2707C4 14.5374 4.53012 13.9116 5.2534 13.7911L6.44514 13.5925C7.01084 13.4982 7.46451 13.081 7.68443 12.5513C7.90444 12.0214 7.87505 11.4129 7.54157 10.946L6.83931 9.96288C6.41311 9.36621 6.48075 8.54886 6.99925 8.03037L8.03064 6.99897C8.54914 6.48047 9.36649 6.41283 9.96316 6.83903L10.9466 7.5415C11.4134 7.8749 12.0217 7.9043 12.5515 7.68435C13.081 7.46449 13.4982 7.01092 13.5924 6.44533L13.7911 5.2534Z"
        stroke="white" stroke-linecap="round" stroke-linejoin="round" stroke-width="1.5" />
    <path
        d="M20.0009 16C20.0009 18.2092 18.2101 20 16.0009 20C13.7918 20 12.0009 18.2092 12.0009 16C12.0009 13.7909 13.7918 12 16.0009 12C18.2101 12 20.0009 13.7909 20.0009 16Z"
        stroke="white" stroke-linecap="round" stroke-linejoin="round" stroke-width="1.5" />
</svg>
